<svg width="24" height="24" viewBox="0 0 24 24" fill="none" xmlns="http://www.w3.org/2000/svg">
  <path d="M12 2C6.47715 2 2 6.47715 2 12C2 17.5228 6.47715 22 12 22C17.5228 22 22 17.5228 22 12C22 6.47715 17.5228 2 12 2Z" stroke="#00E5FF" stroke-width="1.5"/>
  <path d="M8 9C8 9 9 7 12 7C15 7 16 9 16 9" stroke="#00E5FF" stroke-width="1.5" stroke-linecap="round"/>
  <path d="M7 14L9 19" stroke="#00E5FF" stroke-width="1.5" stroke-linecap="round"/>
  <path d="M17 14L15 19" stroke="#00E5FF" stroke-width="1.5" stroke-linecap="round"/>
  <path d="M7.5 11C7.5 11 9 15 12 15C15 15 16.5 11 16.5 11" stroke="#00E5FF" stroke-width="1.5" stroke-linecap="round"/>
</svg>